<?xml version="1.0" encoding="UTF-8"?>
<svg width="108px" height="63px" viewBox="0 0 108 63" version="1.1" xmlns="http://www.w3.org/2000/svg" xmlns:xlink="http://www.w3.org/1999/xlink">
    <!-- Generator: Sketch 43.1 (39012) - http://www.bohemiancoding.com/sketch -->
    <title>logo</title>
    <desc>Created with Sketch.</desc>
    <defs></defs>
    <g id="Page-1" stroke="none" stroke-width="1" fill="none" fill-rule="evenodd">
        <g id="编辑首页" transform="translate(-164.000000, -2437.000000)" fill="#FFFFFF">
            <g id="Group" transform="translate(0.000000, 2372.000000)">
                <g id="logo" transform="translate(164.000000, 65.000000)">
                    <path d="M42.91968,32.5785738 L47.19504,32.5785738 L47.19504,24.3215115 L42.91968,24.3215115 L42.91968,32.5785738 Z M36.40944,32.5785738 L40.68432,32.5785738 L40.68432,24.3215115 L36.40944,24.3215115 L36.40944,32.5785738 Z M49.42992,32.590623 L49.42992,32.5785738 L49.42992,24.3215115 L49.42992,24.2029475 L49.42992,23.0259836 L42.91968,23.0259836 L42.91968,22.3791836 L40.68432,22.3791836 L40.68432,23.0259836 L34.17456,23.0259836 L34.17456,24.2029475 L34.17456,24.3215115 L34.17456,32.5785738 L34.17456,32.7409967 L34.17456,33.8741016 L40.68432,33.8741016 L40.68432,35.1869803 L42.91968,35.1869803 L42.91968,33.8741016 L48.15696,33.8741016 L48.15696,33.8736197 C48.86016,33.8707279 49.42992,33.2976689 49.42992,32.590623 L49.42992,32.590623 Z" id="Fill-1"></path>
                    <path d="M30.976752,32.5877311 L30.976752,27.4832164 C30.969072,26.7805082 30.401232,26.2132328 29.699952,26.2132328 L28.889712,26.2132328 L20.709072,26.2132328 L19.895472,26.2132328 L19.895472,26.2137148 C19.191792,26.2166066 18.622032,26.7896656 18.622032,27.4967115 L18.622032,32.5877311 L20.709072,32.5877311 L20.709072,27.4914098 L28.889712,27.4914098 L28.889712,32.5877311 L30.976752,32.5877311 Z" id="Fill-3"></path>
                    <path d="M31.243728,23.5400498 L30.118608,23.5400498 L30.389328,22.2604269 L28.129488,22.2604269 L27.858768,23.5400498 L27.405168,23.5400498 L27.405168,23.5419777 L25.878768,23.5419777 L25.878768,22.258017 L23.791728,22.258017 L23.791728,23.5419777 L22.194768,23.5419777 L22.055088,23.5419777 L21.698928,23.5419777 L21.428208,22.2604269 L19.168368,22.2604269 L19.439088,23.5419777 L19.168368,23.5419777 L18.337008,23.5419777 C17.641968,23.5540269 17.081808,24.1217843 17.081808,24.8230466 L17.081808,26.0612203 L18.622128,26.0612203 L19.168368,26.0612203 L19.168368,24.8201548 L22.055088,24.8201548 L22.194768,24.8201548 L23.791728,24.8201548 L25.878768,24.8201548 L27.471408,24.8201548 L27.471408,24.8182269 L27.589008,24.8182269 L27.588528,24.8201548 L29.847888,24.8201548 L29.848368,24.8182269 L30.389328,24.8182269 L30.389328,26.0612203 L30.978288,26.0612203 L32.475888,26.0612203 L32.475888,24.8182269 L32.475888,24.8134072 L32.475408,24.8134072 C32.472528,24.1232302 31.926288,23.5646302 31.243728,23.5400498" id="Fill-4"></path>
                    <path d="M27.183024,30.7532675 L25.382544,30.7532675 C25.694544,29.6264282 25.627344,28.7396085 25.627344,28.7396085 L23.603184,28.7396085 L23.603184,28.938179 C23.603664,28.9598675 23.603664,28.9834839 23.603184,29.0080643 L23.603184,29.0991561 L23.601744,29.0991561 C23.583024,29.8163233 23.383344,31.4550118 22.039344,32.5895626 C21.145584,33.3443233 19.964784,33.7559233 18.965904,33.8224348 L18.167184,33.8590643 L17.259504,33.8711134 L17.259504,35.1285659 C18.178704,35.2264052 21.524304,35.4003954 23.503824,33.7380905 C24.285744,33.0816511 24.781584,32.3105036 25.096464,31.5726118 L25.096464,33.9087069 L25.096944,33.9087069 C25.099344,34.6147889 25.670064,35.1868839 26.374224,35.1868839 L26.643984,35.1868839 L27.183024,35.1868839 L32.475984,35.1868839 L32.475984,33.9087069 L27.183024,33.9087069 L27.183024,30.7532675 Z" id="Fill-5"></path>
                    <polygon id="Fill-6" points="0.0048 35.1508328 1.64064 35.1508328 1.64064 27.6306984 0.0048 27.6306984"></polygon>
                    <path d="M4.621008,26.4739289 L4.620528,26.4739289 C4.617648,25.7673649 4.046928,25.1957518 3.342768,25.1957518 L0.003408,25.1957518 L0.003408,26.4739289 L2.533968,26.4739289 L2.541168,35.1507846 L4.628208,35.1507846 L4.621008,26.823837 L4.621008,26.4739289 Z" id="Fill-7"></path>
                    <path d="M13.006224,30.7240121 L15.093264,30.7240121 L15.093264,23.6747597 L15.094224,23.6747597 L15.094224,23.6747597 L15.093744,23.6747597 C15.090864,22.9696416 14.522544,22.3989925 13.820304,22.3965826 L7.611504,22.3965826 L7.611504,22.3965826 L5.524944,22.3965826 L5.524944,30.7240121 L7.611504,30.7240121 L7.611504,23.6747597 L13.006224,23.6747597 L13.006224,29.4366777 L11.070864,29.4366777 L11.070864,25.1948843 L9.039984,25.1948843 L9.039984,29.0472482 C9.039984,29.0472482 9.028464,29.6930843 8.856144,30.2642154 C8.672304,30.8719761 8.347344,31.4267203 8.290224,31.534199 C7.047504,33.8625826 4.789584,35.1494351 4.789584,35.1494351 L7.776624,35.1494351 C7.776624,35.1494351 9.924624,33.5960548 10.919664,30.3466318 L10.919664,33.871258 L10.920144,33.871258 C10.922544,34.57734 11.493264,35.1494351 12.197424,35.1494351 L13.006224,35.1494351 L15.396144,35.1494351 L15.396144,33.871258 L13.006224,33.871258 L13.006224,30.7240121 Z" id="Fill-8"></path>
                    <path d="M4.621008,23.6749043 L4.620528,23.6749043 C4.617648,22.9683403 4.046928,22.3967272 3.342768,22.3967272 L4.8e-05,22.3967272 L4.8e-05,24.0392715 L4.621008,24.0392715 L4.621008,23.6749043 Z" id="Fill-9"></path>
                    <polygon id="Fill-10" points="63.563472 33.0038134 63.588912 33.0038134 63.588912 30.5539741 62.298672 30.5539741 62.298672 31.7082856 59.862192 31.7082856 59.862192 29.3726725 63.284112 29.3726725 63.284112 28.0771446 59.862192 28.0771446 59.862192 25.7410495 63.284112 25.7410495 63.284112 24.4455216 54.204912 24.4455216 54.204912 25.7410495 57.626832 25.7410495 57.626832 28.0771446 54.204912 28.0771446 54.204912 29.3726725 57.626832 29.3726725 57.626832 31.7082856 53.925552 31.7082856 53.925552 33.0038134 62.298672 33.0038134"></polygon>
                    <path d="M53.24496,33.8741016 L64.26048,33.8741016 L64.26048,23.6747115 L53.24496,23.6747115 L53.24496,33.8741016 Z M65.0928,35.1691475 C65.79648,35.1662557 66.36576,34.5931967 66.36576,33.8861508 L66.36576,22.3791836 L64.26048,22.3791836 L53.24448,22.3791836 L51.12912,22.3791836 L51.12912,23.6747115 L51.12912,33.8741016 L51.12912,34.3888426 L51.12912,35.1696295 L65.0928,35.1696295 L65.0928,35.1691475 Z" id="Fill-11"></path>
                    <polygon id="Fill-12" points="107.560512 9.88890689 91.284672 9.88890689 83.384352 18.501179 83.384352 28.9897495 94.265952 28.9897495 107.566272 26.2372348 107.566272 9.88890689"></polygon>
                    <polygon id="Fill-13" points="70.060128 0.000192786885 61.459488 0.000192786885 61.459488 13.1150026 61.459488 13.1183764 68.428608 18.2667502 73.233888 18.2667502 73.233888 11.2184616 70.063968 0.000192786885"></polygon>
                    <polygon id="Fill-14" points="82.427472 46.845237 74.668752 46.845237 73.793712 52.4211157 73.791312 52.4211157 73.791312 62.6359289 73.793232 62.6359289 83.962512 62.6359289 83.963952 62.6359289 83.963952 52.4211157 83.961072 52.4211157"></polygon>
                    <polygon id="Fill-15" points="48.230592 43.6464689 48.230592 53.8569443 48.230592 53.8608 58.403232 53.8608 58.403232 53.8540525 68.979552 45.4302295 68.979552 39.4133508 64.774752 39.4133508"></polygon>
                    <path d="M102.224832,39.2261066 L102.226752,39.2232148 L88.828512,36.2379098 C86.637312,35.749677 85.106592,38.3648311 86.596992,40.0493066 L95.857632,50.5176344 L95.865312,50.5036574 C97.481472,52.1471656 99.892512,52.9187951 102.284352,52.3134443 C105.880032,51.4039721 108.060672,47.7395754 107.154432,44.129159 C106.524672,41.6185918 104.567232,39.7982016 102.224832,39.2261066" id="Fill-16"></path>
                </g>
            </g>
        </g>
    </g>
</svg>